<?xml version="1.0" standalone="no"?>
<!DOCTYPE svg PUBLIC "-//W3C//DTD SVG 20010904//EN"
 "http://www.w3.org/TR/2001/REC-SVG-20010904/DTD/svg10.dtd">
<svg version="1.0" xmlns="http://www.w3.org/2000/svg"
 width="1309.000000pt" height="1020.000000pt" viewBox="0 0 1309.000000 1020.000000"
 preserveAspectRatio="xMidYMid meet">

<g transform="translate(0.000000,1020.000000) scale(0.100000,-0.100000)"
fill="#000000" stroke="none">
<path d="M3770 9464 c162 -28 370 -100 467 -163 61 -40 140 -116 196 -191 134
-178 286 -503 430 -925 30 -89 136 -372 235 -630 1929 -5028 2794 -7280 2797
-7284 6 -6 102 58 185 123 295 234 520 600 600 978 58 270 47 564 -32 833 -11
39 -504 1330 -1095 2870 -591 1540 -1134 2953 -1205 3140 -72 187 -148 369
-169 405 -245 420 -650 712 -1136 821 -94 22 -121 23 -698 25 -330 1 -589 0
-575 -2z"/>
<path d="M3335 8835 c-208 -46 -372 -165 -484 -351 -94 -156 -125 -383 -75
-554 8 -30 103 -282 209 -560 1655 -4320 2464 -6422 2501 -6496 76 -153 225
-331 379 -454 408 -325 1038 -488 1443 -373 28 8 52 19 52 24 0 12 197 -502
-2547 6644 -355 923 -660 1709 -678 1745 -119 233 -383 392 -649 389 -50 0
-118 -7 -151 -14z"/>
<path d="M2175 7708 c-60 -140 -2078 -5409 -2101 -5488 -89 -304 -88 -657 1
-965 90 -309 285 -614 525 -819 88 -76 211 -166 226 -166 5 0 375 955 823
2123 448 1167 899 2340 1001 2607 303 789 310 807 310 821 0 8 -44 129 -98
269 -54 140 -222 576 -372 968 -150 391 -277 712 -280 712 -4 0 -20 -28 -35
-62z"/>
<path d="M3243 4989 c-11 -30 -439 -1145 -951 -2479 -512 -1334 -934 -2432
-937 -2441 -5 -14 9 -20 92 -35 76 -15 143 -19 298 -18 177 0 215 3 326 27
534 113 964 438 1206 912 28 55 216 530 417 1057 l367 956 -391 1019 c-214
560 -394 1027 -398 1037 -7 15 -12 9 -29 -35z"/>
</g>
</svg>
